<svg data-v-423bf9ae="" xmlns="http://www.w3.org/2000/svg" viewBox="0 0 431 90" class="iconLeft"><!----><!----><!----><g data-v-423bf9ae="" id="39237576-ef50-4d9e-8196-25b360539851" fill="#D2D2D2" transform="matrix(4.514672699188946,0,0,4.514672699188946,107.31539200239328,2.042890346828173)"><path d="M3.89 5.85L3.89 5.85L3.89 5.85Q4.54 5.85 5.05 6.07L5.05 6.07L5.05 6.07Q5.56 6.29 5.91 6.64L5.91 6.64L5.91 6.64Q6.61 7.31 6.73 8.33L6.73 8.33L5.07 8.37L5.07 8.37Q4.96 7.92 4.66 7.63L4.66 7.63L4.66 7.63Q4.35 7.34 3.96 7.34L3.96 7.34L3.96 7.34Q3.57 7.34 3.29 7.46L3.29 7.46L3.29 7.46Q3.01 7.57 2.80 7.83L2.80 7.83L2.80 7.83Q2.32 8.41 2.32 9.45L2.32 9.45L2.32 9.45Q2.32 10.49 2.77 11.01L2.77 11.01L2.77 11.01Q3.22 11.54 3.86 11.54L3.86 11.54L3.86 11.54Q4.49 11.54 4.78 11.24L4.78 11.24L4.78 11.24Q5.07 10.93 5.07 10.42L5.07 10.42L6.73 10.42L6.73 10.42Q6.73 11.54 5.99 12.28L5.99 12.28L5.99 12.28Q5.24 13.03 3.88 13.03L3.88 13.03L3.88 13.03Q2.53 13.03 1.62 12.05L1.62 12.05L1.62 12.05Q0.66 11.00 0.66 9.44L0.66 9.44L0.66 9.44Q0.66 7.78 1.62 6.79L1.62 6.79L1.62 6.79Q2.53 5.85 3.89 5.85ZM11.40 5.85L11.40 5.85L11.40 5.85Q12.08 5.85 12.68 6.07L12.68 6.07L12.68 6.07Q13.29 6.29 13.72 6.73L13.72 6.73L13.72 6.73Q14.69 7.71 14.69 9.45L14.69 9.45L14.69 9.45Q14.69 11.16 13.72 12.14L13.72 12.14L13.72 12.14Q12.85 13.03 11.40 13.03L11.40 13.03L11.40 13.03Q9.94 13.03 9.04 12.14L9.04 12.14L9.04 12.14Q8.08 11.17 8.08 9.45L8.08 9.45L8.08 9.45Q8.08 7.70 9.04 6.73L9.04 6.73L9.04 6.73Q9.93 5.85 11.40 5.85ZM13.03 9.44L13.03 9.44L13.03 9.44Q13.03 8.36 12.61 7.82L12.61 7.82L12.61 7.82Q12.19 7.28 11.45 7.28L11.45 7.28L11.45 7.28Q10.70 7.28 10.22 7.82L10.22 7.82L10.22 7.82Q9.74 8.36 9.74 9.44L9.74 9.44L9.74 9.44Q9.74 10.51 10.17 11.05L10.17 11.05L10.17 11.05Q10.60 11.59 11.34 11.59L11.34 11.59L11.34 11.59Q12.08 11.59 12.56 11.05L12.56 11.05L12.56 11.05Q13.03 10.51 13.03 9.44ZM15.51 6.03L17.42 6.03L18.97 11.20L20.54 6.03L22.44 6.03L19.91 12.84L18.05 12.84L15.51 6.03ZM24.05 12.84L24.05 6.02L25.70 6.02L25.70 12.84L24.05 12.84ZM23.86 3.84L23.86 3.84L23.86 3.84Q23.86 3.39 24.12 3.13L24.12 3.13L24.12 3.13Q24.39 2.87 24.88 2.87L24.88 2.87L24.88 2.87Q25.35 2.87 25.63 3.13L25.63 3.13L25.63 3.13Q25.90 3.39 25.90 3.84L25.90 3.84L25.90 3.84Q25.90 4.28 25.63 4.54L25.63 4.54L25.63 4.54Q25.35 4.80 24.88 4.80L24.88 4.80L24.88 4.80Q24.39 4.80 24.12 4.54L24.12 4.54L24.12 4.54Q23.86 4.28 23.86 3.84ZM33.14 12.84L32.94 11.79L32.94 11.79Q32.31 13.03 31.01 13.03L31.01 13.03L31.01 13.03Q29.71 13.03 28.83 12.04L28.83 12.04L28.83 12.04Q27.92 11.00 27.92 9.41L27.92 9.41L27.92 9.41Q27.92 7.81 28.78 6.82L28.78 6.82L28.78 6.82Q29.64 5.85 30.91 5.85L30.91 5.85L30.91 5.85Q32.19 5.85 32.83 6.87L32.83 6.87L32.83 3.23L34.50 3.23L34.50 12.84L33.14 12.84ZM31.22 7.34L31.22 7.34L31.22 7.34Q30.52 7.34 30.05 7.90L30.05 7.90L30.05 7.90Q29.58 8.47 29.58 9.42L29.58 9.42L29.58 9.42Q29.58 10.37 30.06 10.96L30.06 10.96L30.06 10.96Q30.53 11.54 31.26 11.54L31.26 11.54L31.26 11.54Q31.86 11.54 32.34 11.06L32.34 11.06L32.34 11.06Q32.83 10.57 32.83 9.83L32.83 9.83L32.83 8.95L32.83 8.95Q32.80 8.22 32.34 7.76L32.34 7.76L32.34 7.76Q31.92 7.34 31.22 7.34ZM38.54 6.03L38.72 7.21L38.72 7.21Q39.40 5.85 40.88 5.85L40.88 5.85L40.88 5.85Q42.14 5.85 42.78 6.68L42.78 6.68L42.78 6.68Q43.41 7.50 43.41 8.86L43.41 8.86L43.41 12.84L41.76 12.84L41.76 8.86L41.76 8.86Q41.76 8.11 41.40 7.72L41.40 7.72L41.40 7.72Q41.03 7.34 40.38 7.34L40.38 7.34L40.38 7.34Q39.72 7.34 39.25 7.92L39.25 7.92L39.25 7.92Q38.78 8.51 38.75 9.69L38.75 9.69L38.75 12.84L37.10 12.84L37.10 6.03L38.54 6.03ZM50.57 6.85L50.57 6.85Q50.92 7.29 51.09 7.88L51.09 7.88L51.09 7.88Q51.27 8.47 51.27 8.96L51.27 8.96L51.27 8.96Q51.27 9.45 51.21 9.84L51.21 9.84L46.82 9.84L46.82 9.84Q46.84 10.67 47.22 11.19L47.22 11.19L47.22 11.19Q47.60 11.70 48.37 11.70L48.37 11.70L48.37 11.70Q49.39 11.70 49.59 10.81L49.59 10.81L51.25 10.81L51.25 10.81Q51.09 11.83 50.32 12.42L50.32 12.42L50.32 12.42Q49.52 13.03 48.37 13.03L48.37 13.03L48.37 13.03Q47.03 13.03 46.12 12.05L46.12 12.05L46.12 12.05Q45.18 11.03 45.18 9.44L45.18 9.44L45.18 9.44Q45.18 7.80 46.12 6.80L46.12 6.80L46.12 6.80Q47.01 5.85 48.37 5.85L48.37 5.85L48.37 5.85Q49.78 5.85 50.57 6.85L50.57 6.85ZM48.38 7.17L48.38 7.17L48.38 7.17Q47.68 7.17 47.29 7.62L47.29 7.62L47.29 7.62Q46.90 8.08 46.83 8.79L46.83 8.79L49.73 8.79L49.73 8.79Q49.73 7.69 49.03 7.31L49.03 7.31L49.03 7.31Q48.76 7.17 48.38 7.17ZM54.60 6.03L54.75 6.96L54.75 6.96Q55.40 5.85 56.71 5.85L56.71 5.85L56.71 5.85Q57.97 5.85 58.87 6.80L58.87 6.80L58.87 6.80Q59.82 7.81 59.82 9.44L59.82 9.44L59.82 9.44Q59.82 11.07 58.86 12.08L58.86 12.08L58.86 12.08Q57.96 13.03 56.71 13.03L56.71 13.03L56.71 13.03Q55.47 13.03 54.89 12.29L54.89 12.29L54.89 16.16L53.24 16.16L53.24 6.03L54.60 6.03ZM56.42 11.54L56.42 11.54L56.42 11.54Q56.71 11.54 57.03 11.41L57.03 11.41L57.03 11.41Q57.34 11.28 57.60 11.02L57.60 11.02L57.60 11.02Q58.16 10.43 58.16 9.44L58.16 9.44L58.16 9.44Q58.16 8.46 57.67 7.90L57.67 7.90L57.67 7.90Q57.19 7.34 56.50 7.34L56.50 7.34L56.50 7.34Q55.80 7.34 55.36 7.74L55.36 7.74L55.36 7.74Q54.92 8.13 54.89 8.88L54.89 8.88L54.89 10.09L54.89 10.09Q54.89 10.75 55.36 11.16L55.36 11.16L55.36 11.16Q55.79 11.54 56.42 11.54ZM64.02 8.86L64.02 8.86L64.02 8.86Q64.83 8.86 65.90 9.13L65.90 9.13L65.90 8.46L65.90 8.46Q65.90 7.74 65.61 7.40L65.61 7.40L65.61 7.40Q65.32 7.06 64.67 7.06L64.67 7.06L64.67 7.06Q64.02 7.06 63.67 7.32L63.67 7.32L63.67 7.32Q63.32 7.57 63.32 8.05L63.32 8.05L61.52 8.05L61.52 8.05Q61.52 6.89 62.34 6.37L62.34 6.37L62.34 6.37Q63.15 5.85 64.62 5.85L64.62 5.85L64.62 5.85Q66.72 5.85 67.34 7.32L67.34 7.32L67.34 7.32Q67.55 7.83 67.55 8.51L67.55 8.51L67.55 12.84L66.11 12.84L65.98 11.93L65.98 11.93Q65.32 13.03 63.97 13.03L63.97 13.03L63.97 13.03Q62.65 13.03 61.92 12.39L61.92 12.39L61.92 12.39Q61.25 11.77 61.25 10.83L61.25 10.83L61.25 10.83Q61.25 9.88 61.99 9.37L61.99 9.37L61.99 9.37Q62.73 8.86 64.02 8.86ZM65.90 10.18L65.90 10.18L65.90 10.18Q65.07 9.95 64.36 9.95L64.36 9.95L64.36 9.95Q63.01 9.95 63.01 10.85L63.01 10.85L63.01 10.85Q63.01 11.23 63.32 11.50L63.32 11.50L63.32 11.50Q63.63 11.77 64.31 11.77L64.31 11.77L64.31 11.77Q64.99 11.77 65.43 11.32L65.43 11.32L65.43 11.32Q65.87 10.86 65.90 10.18ZM69.96 12.84L69.96 3.23L71.61 3.23L71.61 12.84L69.96 12.84Z"></path></g><!----><g data-v-423bf9ae="" id="31fd6d82-1bc0-47af-9738-c05f384f5e94" transform="matrix(2.9508196721311477,0,0,2.9508196721311477,-1.5131143399926543,-1.3655737472362262)" stroke="none" fill="#DADADA"><path d="M16 22.1c-3.4 0-6.1-2.7-6.1-6.1s2.7-6.1 6.1-6.1 6.1 2.7 6.1 6.1-2.7 6.1-6.1 6.1zm0-10.7c-2.5 0-4.6 2.1-4.6 4.6 0 2.5 2.1 4.6 4.6 4.6 2.5 0 4.6-2.1 4.6-4.6 0-2.5-2.1-4.6-4.6-4.6z"></path><path d="M15.3 6.1h1.5v4.5h-1.5z"></path><path d="M16 7.1c-1.8 0-3.2-1.4-3.2-3.2S14.2.7 16 .7s3.2 1.4 3.2 3.2-1.4 3.2-3.2 3.2zm0-4.9c-.9 0-1.7.8-1.7 1.7 0 .9.8 1.7 1.7 1.7.9 0 1.7-.8 1.7-1.7 0-.9-.8-1.7-1.7-1.7zM15.3 21.3h1.5v4.5h-1.5z"></path><path d="M16 31.2c-1.8 0-3.2-1.4-3.2-3.2 0-1.8 1.4-3.2 3.2-3.2s3.2 1.4 3.2 3.2c0 1.8-1.4 3.2-3.2 3.2zm0-4.8c-.9 0-1.7.8-1.7 1.7 0 .9.8 1.7 1.7 1.7.9 0 1.7-.8 1.7-1.7 0-1-.8-1.7-1.7-1.7zM6.1 15.3h4.5v1.5H6.1z"></path><path d="M3.9 19.2C2.1 19.2.7 17.8.7 16s1.4-3.2 3.2-3.2 3.2 1.4 3.2 3.2-1.4 3.2-3.2 3.2zm0-4.9c-.9 0-1.7.8-1.7 1.7 0 .9.8 1.7 1.7 1.7.9 0 1.7-.8 1.7-1.7 0-.9-.7-1.7-1.7-1.7zM21.3 15.3h4.5v1.5h-4.5z"></path><path d="M28.1 19.2c-1.8 0-3.2-1.4-3.2-3.2s1.4-3.2 3.2-3.2c1.8 0 3.2 1.4 3.2 3.2s-1.5 3.2-3.2 3.2zm0-4.9c-.9 0-1.7.8-1.7 1.7 0 .9.8 1.7 1.7 1.7.9 0 1.7-.8 1.7-1.7 0-.9-.8-1.7-1.7-1.7zM9.561 8.54l3.182 3.182-1.06 1.06L8.5 9.602z"></path><path d="M7.5 10.7c-.9 0-1.7-.3-2.3-.9-.6-.7-.9-1.5-.9-2.3s.3-1.7.9-2.3C6.4 4 8.5 4 9.7 5.2c.6.6.9 1.4.9 2.3s-.3 1.7-.9 2.3c-.6.5-1.4.9-2.2.9zm0-4.9c-.5 0-.9.2-1.2.5-.3.3-.5.7-.5 1.2s.2.8.5 1.2c.6.6 1.7.6 2.4 0 .3-.4.5-.8.5-1.2s-.2-.9-.5-1.2c-.4-.3-.8-.5-1.2-.5zM20.317 19.217L23.5 22.4l-1.06 1.061-3.182-3.182z"></path><path d="M24.5 27.7c-.9 0-1.7-.3-2.3-.9-1.2-1.2-1.2-3.3 0-4.5 1.2-1.2 3.3-1.2 4.5 0 1.2 1.2 1.2 3.3 0 4.5-.5.6-1.3.9-2.2.9zm0-4.9c-.5 0-.9.2-1.2.5-.7.7-.7 1.7 0 2.4.6.6 1.8.6 2.4 0 .7-.7.7-1.7 0-2.4-.3-.3-.7-.5-1.2-.5zM11.722 19.257l1.06 1.06L9.602 23.5l-1.06-1.06z"></path><path d="M7.5 27.7c-.9 0-1.7-.3-2.3-.9-.6-.6-.9-1.4-.9-2.3 0-.9.3-1.7.9-2.3 1.2-1.2 3.3-1.2 4.5 0 .6.6.9 1.4.9 2.3 0 .9-.3 1.7-.9 2.3-.6.6-1.4.9-2.2.9zm0-4.9c-.5 0-.9.2-1.2.5-.3.3-.5.7-.5 1.2s.2.9.5 1.2c.6.6 1.7.6 2.4 0 .3-.3.5-.7.5-1.2s-.2-.9-.5-1.2c-.4-.3-.8-.5-1.2-.5zM22.399 8.5l1.06 1.061-3.182 3.182-1.06-1.06z"></path><path d="M24.5 10.7c-.9 0-1.7-.3-2.3-.9-1.2-1.2-1.2-3.3 0-4.5 1.2-1.2 3.3-1.2 4.5 0 .6.6.9 1.4.9 2.3s-.3 1.7-.9 2.3c-.5.4-1.3.8-2.2.8zm0-4.9c-.5 0-.9.2-1.2.5-.7.7-.7 1.7 0 2.4.6.6 1.8.6 2.4 0 .7-.7.7-1.7 0-2.4-.3-.3-.7-.5-1.2-.5z"></path></g><!----></svg>