<svg version="1" xmlns="http://www.w3.org/2000/svg" width="474.667" height="474.667" viewBox="0 0 356.000000 356.000000"><path d="M158 10.6c-16.5 3-26.1 5.2-34.5 8.1C66.7 38.3 26.2 84.4 12.8 144.6c-1.9 8.7-2.2 12.8-2.2 33.4 0 20.6.3 24.7 2.2 33.4 5 22.6 13 41.6 24.6 59.1 23.8 35.7 57.3 59.7 98.4 70.5 25.4 6.7 59 6.7 84.4 0 41.1-10.8 74.6-34.8 98.4-70.5 11.7-17.6 19.7-37 24.5-59.1 3.4-15.6 3.8-43.8.9-60.9-11.6-68.7-62.6-122.1-131-137.2-9.8-2.2-14.5-2.6-32-2.8-11.3-.2-21.6-.1-23 .1zM180.5 58c.3.5 1.5 1 2.6 1 5.9 0 15.9 8.9 17.8 15.7 1.6 5.7 1.3 13.3-.8 17.8-2.1 4.6-9.2 11.5-13.8 13.4l-3.3 1.3v11.9c0 10 .2 11.9 1.5 11.9 2.8 0 13.6 4 17.6 6.5 2.1 1.4 4.4 2.4 5.1 2.4.7-.1 4.6-3.6 8.6-7.9l7.2-7.7-1.5-3.6c-2.1-5-1.9-14.3.4-19.2 2.5-5.5 8.6-11.1 14-13 11.9-4 23.5.5 29.5 11.5 2.4 4.4 2.9 6.5 2.9 12.1s-.5 7.6-3 12c-5.5 9.8-17.9 14.1-29.8 10.4l-5.6-1.8-7.5 7.4c-4.1 4-7.4 7.6-7.4 8 0 .4 1.5 3.2 3.4 6.2 1.8 3.1 3.9 7.8 4.5 10.4 2.6 9.9 1.7 9.3 14 9.3h11l2.1-4.8c4.5-10.1 12.2-15.2 23-15.2 10.6 0 18.5 5.2 22.6 14.8 2.5 5.9 1.5 16.9-2.2 22.9-5.7 9.1-17.2 13.3-28.3 10.3-5.3-1.4-13.2-8.9-15.2-14.3l-1.3-3.7H225l-.6 2.7c-1.4 6.5-3.7 12.3-6.5 16.8l-3 4.8 7.8 7.9c7.8 7.8 9.7 8.8 13.5 6.7 3.8-2 13-1.3 18.4 1.4 9.3 4.8 13.4 11.4 13.4 21.6 0 6.7-1 10-4.7 15.3-6.9 10.1-25.4 11.9-35 3.5-7.5-6.6-10.2-17.9-6.6-28l1.7-4.8-8-8-8.1-8.1-4.8 3.1c-4.5 2.8-10.3 5.1-16.7 6.5l-2.8.6v22.8l3.3 1.3c4.6 1.9 11.7 8.8 13.8 13.4 2.1 4.6 2.4 12 .7 17.6-2.1 7.3-11.8 15.9-17.7 15.9-1.1 0-2.3.5-2.6 1-.8 1.3-5.2 1.3-6 0-.3-.6-1.6-1-2.8-1-4.7-.1-12.1-5.3-15.4-11-2.9-4.7-3.3-6.3-3.3-12.4 0-11.3 4.7-18.4 15.8-23.6l4.3-2-.3-10.7c-.3-10.5-.4-10.8-2.8-11.5-10.7-3.1-13.7-4.2-17.8-6.8l-4.7-3-8.3 8.4-8.2 8.3 1.5 3.6c4.9 11.8-1.5 27.4-13.2 32.4-4.3 1.8-14.5 1.7-19.1-.3-4.6-1.9-9.8-6.8-12.3-11.6-2.6-5-2.6-16.7 0-22.3 2-4.6 7.9-10.1 12.7-12.1 4.5-1.9 12.9-1.8 18.7.3l4.8 1.7 7.9-7.9 7.9-8-3.4-5.4c-1.9-2.9-4.2-8.4-5.2-12.2l-1.7-6.9h-23.5l-1.9 4.3c-2.3 5.3-7.4 10.4-12.7 12.8-5 2.3-14.2 2.5-19.3.3-6.7-2.7-14.2-11.9-14.2-17.3 0-1.1-.5-2.3-1-2.6-1.3-.8-1.3-4-.1-6.3.6-.9 1.2-2.8 1.5-4.2.3-1.4 1.8-4.6 3.4-7.1 7.4-11.6 27.7-13.5 37.1-3.5 1.2 1.3 3.5 4.8 5 7.7l2.8 5.4 11.1.3c8.5.2 11.3-.1 11.6-1 .3-.7 1.4-4.5 2.5-8.4 1.1-3.9 3.2-8.7 4.6-10.8 1.4-2 2.5-4.3 2.5-5 0-.7-3.6-4.7-7.9-9l-8-7.7-3.2 1.6c-5 2.6-13.1 3.1-18.4 1-10.1-3.8-15.5-11.9-15.5-23.3 0-12.2 6.4-21 17.4-23.9 12-3.1 24.3 2.9 29.1 14.4 1.9 4.6 1.9 14.4 0 19l-1.6 3.7 7.8 8c4.3 4.4 7.9 8.2 8 8.4.1.3 2.6-1 5.4-2.9 2.8-1.8 8.6-4.3 12.8-5.5l7.6-2.2.3-11.1.3-11.1-4.3-2c-11.1-5.2-15.8-12.3-15.8-23.6 0-6.1.4-7.7 3.3-12.4 3.3-5.7 10.7-10.9 15.4-11 1.2 0 2.5-.5 2.8-1 .3-.6 1.7-1 3-1s2.7.4 3 1z"/><path d="M169.9 71.3c-9.4 6.3-8.5 19.3 1.7 24.2 8.6 4.1 19.7-2.9 19.7-12.3 0-11.1-12.4-18-21.4-11.9zM103.2 99c-6.9 4.2-9 12-5 19.1 7.2 12.9 26.8 6.5 25.5-8.4-.9-10-12.1-15.8-20.5-10.7zM237 99.2c-6.6 4.5-8.7 12.5-5 18.6 6 9.8 20 9.4 25.3-.8 6.2-12.1-9-25.4-20.3-17.8zM168.9 142.3c-10.8 3.1-19.9 10.8-25.1 21.5-2.9 5.9-3.3 7.6-3.3 14.7s.4 8.9 3.2 14.6c9.6 19.5 30.7 27.6 49.3 18.7 5.8-2.8 14.8-11.9 18-18.3 2.2-4.3 2.5-6.3 2.5-15 0-12.2-2-17.1-10.4-25.6-9.8-9.8-22.8-13.8-34.2-10.6zM76 165.8c-13 6.5-8.9 26.3 5.6 26.6 11 .2 17.9-13.3 11.4-22.4-2.4-3.4-7.3-6-11.2-6-1.3 0-3.9.8-5.8 1.8zM267 165.7c-11.2 5.8-10.4 21.3 1.4 25.8 5.6 2.2 10.2.9 14.5-4 3.9-4.5 4.7-8.9 2.6-14.3-3.1-7.7-11.5-11.1-18.5-7.5zM104.3 232.9c-5 2.3-7.4 5.7-8 11.4-1 8.3 5 14.7 13.5 14.7s14.2-5.2 14.2-12.9c0-10.7-10.2-17.5-19.7-13.2zM240 232.1c-5.4 2.2-10 8.5-10 13.4 0 4.1 3 9.5 6.4 11.6 4 2.4 11.8 2.5 15.8.1 3.5-2 6.8-7.9 6.8-12 0-8.3-11.5-16.3-19-13.1zM171.2 261.7c-12.3 6-9.4 23.8 4.1 26 4.7.7 11.6-2.6 14.1-6.8 6.9-11.7-5.9-25.3-18.2-19.2z"/></svg>